<svg width="150" height="48" viewBox="0 0 150 48" fill="none" xmlns="http://www.w3.org/2000/svg">
<path d="M132.281 31.3986V19.5917H134.392V21.0399C135.08 19.8126 136.16 19.248 137.608 19.248C139.228 19.248 140.431 20.0335 140.995 21.3591C141.756 19.9354 142.984 19.248 144.53 19.248C147.255 19.248 148.752 20.8927 148.752 23.8383V31.3986H146.396V23.961C146.396 22.3164 145.61 21.4081 144.113 21.4081C142.714 21.4081 141.707 22.4882 141.707 24.0346V31.3986H139.326V23.961C139.326 22.3164 138.541 21.4081 137.092 21.4081C135.669 21.4081 134.662 22.4882 134.662 24.0346V31.3986H132.281Z" fill="#100F0F"/>
<path d="M121.669 31.7423C118.945 31.7423 117.227 30.3186 117.227 28.0603C117.227 25.9493 118.65 24.4274 121.547 24.2555L125.131 24.0592V23.3964C125.131 21.85 124.37 21.2118 122.75 21.2118C121.179 21.2118 120.393 21.6291 120.197 22.8809H117.816C118.086 20.4508 119.755 19.248 122.921 19.248C125.744 19.248 127.389 20.6717 127.389 23.2737V29.0421C127.389 29.3121 127.512 29.4349 127.782 29.4349H128.788V31.3986H126.873C126.063 31.3986 125.597 30.9568 125.597 30.1713V29.8276C124.91 31.0304 123.51 31.7423 121.669 31.7423ZM119.608 27.9866C119.608 29.0667 120.491 29.7785 121.94 29.7785C123.854 29.7785 125.131 28.6739 125.131 26.6611V25.9002L121.841 26.1456C120.319 26.2438 119.608 27.0293 119.608 27.9866Z" fill="#100F0F"/>
<path d="M109.052 31.7423C105.517 31.7423 103.234 29.1158 103.234 25.532C103.234 21.85 105.64 19.248 109.199 19.248C112.194 19.248 114.231 20.9909 114.501 23.4701H112.071C111.85 22.3655 110.868 21.4081 109.175 21.4081C107.064 21.4081 105.689 23.0037 105.689 25.4829C105.689 28.0112 107.088 29.5822 109.126 29.5822C110.721 29.5822 111.875 28.6494 112.12 27.2748H114.55C114.231 29.6312 112.268 31.7423 109.052 31.7423Z" fill="#100F0F"/>
<path d="M89.3682 35.819V33.6835H91.4792C92.2892 33.6835 92.6574 33.438 92.9275 32.8244L93.9584 30.5906L89 19.5938H91.7247L95.2103 27.915L98.6959 19.5938H101.371L94.8912 34.0026C94.3512 35.2299 93.6638 35.819 92.0192 35.819H89.3682Z" fill="#100F0F"/>
<path d="M85.4279 31.3994C83.7587 31.3994 83.0469 30.7612 83.0469 29.1657V14.2168H85.4279V28.4293C85.4279 29.0429 85.6488 29.3129 86.2625 29.3129H87.7598V31.3994H85.4279Z" fill="#100F0F"/>
<path d="M73.0329 31.7423C69.4491 31.7423 66.9453 29.2385 66.9453 25.4829C66.9453 21.7518 69.4491 19.248 73.0329 19.248C76.6412 19.248 79.1204 21.7518 79.1204 25.4829C79.1204 29.2385 76.6412 31.7423 73.0329 31.7423ZM69.4 25.4829C69.4 27.9375 70.8728 29.5822 73.0329 29.5822C75.2175 29.5822 76.6658 27.9375 76.6658 25.4829C76.6658 23.0528 75.2175 21.4081 73.0329 21.4081C70.8728 21.4081 69.4 23.0528 69.4 25.4829Z" fill="#100F0F"/>
<path d="M51.75 31.3994V14.2168H58.8685C62.4523 14.2168 64.5633 16.1314 64.5633 19.2734C64.5633 22.4399 62.4523 24.3791 58.8685 24.3791H54.2047V31.3994H51.75ZM54.2047 22.0962H58.7703C60.8813 22.0962 62.0596 21.0653 62.0596 19.2734C62.0596 17.5306 60.8813 16.5242 58.7703 16.5242H54.2047V22.0962Z" fill="#100F0F"/>
<path fill-rule="evenodd" clip-rule="evenodd" d="M23.0212 5.74947C23.11 5.69809 23.2195 5.69809 23.3083 5.74947L37.5056 13.9653C37.5941 14.0165 37.6487 14.111 37.6487 14.2133V24.4843C37.6487 24.5866 37.5942 24.6811 37.5056 24.7323L32.6101 27.5658L39.2807 31.4257C39.3693 31.4769 39.4238 31.5714 39.4238 31.6737V41.9435C39.4238 42.0459 39.3691 42.1406 39.2804 42.1917C39.1916 42.2429 39.0823 42.2428 38.9937 42.1915L23.0212 32.9481C22.9327 32.8969 22.8782 32.8024 22.8782 32.7001V22.4303C22.8782 22.3281 22.9327 22.2335 23.0212 22.1823L27.9168 19.3488L23.1648 16.5984L9.10979 24.7323C9.02114 24.7836 8.91183 24.7837 8.8231 24.7325C8.73436 24.6814 8.67969 24.5867 8.67969 24.4843V14.2133C8.67969 14.111 8.7342 14.0165 8.82273 13.9653L23.0212 5.74947ZM23.4513 16.102L28.4889 19.0177L36.79 14.2133L23.4513 6.49443V16.102ZM22.8782 6.49441V16.102L9.25282 23.9873V14.3786L22.8782 6.49441ZM37.0755 14.7103L29.061 19.3488L37.0755 23.9873V14.7103ZM36.79 24.4843L28.4889 19.6799L23.7368 22.4303L32.0379 27.2347L36.79 24.4843ZM31.4658 27.5658L23.4513 32.2032V22.9273L31.4658 27.5658ZM23.7369 32.7001L32.0379 27.8969L38.8506 31.839V41.4466L23.7369 32.7001Z" fill="#100F0F"/>
<path d="M32.0404 27.5644L37.3646 24.4829V14.2119L23.1673 5.99609L8.96875 14.2119V24.4829L23.1673 16.2659L28.4914 19.3474L23.1673 22.4289V32.6987L39.1397 41.9421V31.6723L32.0404 27.5644Z" fill="#100F0F"/>
</svg>